# xmcd
#
# Track frame offsets: 
#        151
#        25140
#        57503
#        89766
#        123740
#        146257
#        178711
#        206198
#        225550
#        236861
#        260861
#        285976
#
# Disc length: 4117 seconds
#
# Revision: 1
# Processed by: cddbd v1.5.2PL0 Copyright (c) Steve Scherf et al.
# Submitted via: ExactAudioCopyFreeDBPlugin 1.0
#
DISCID=b910130c
DTITLE=Various Artist - Blues Of Summer
DYEAR=1900
DGENRE=Blues
TTITLE0=Danny Moss Meets Buddha's Gamblers - D.M. Blues
TTITLE1=Allan Vaché and Antti Sarpila - Blues Of Summer
TTITLE2=Warren Vaché With Joe Puma, Murray Wall and Eddie Locke - Too Ph
TTITLE2=at Blues
TTITLE3=The Buck Clayton Swing Band - Black Sheep Blues
TTITLE4=Butch Miles and Friends - Barney's Blues
TTITLE5=Bill Allred and Roy Williams - Sunhat Blues
TTITLE6=The Dave Glasser, Clark Terry and Barry Harris Project - Intimac
TTITLE6=y Of The Blues
TTITLE7=Bob Wilber and Friends - I Gotta Right To Sing The Blues
TTITLE8=Oscar Klein's Anniversary Band - Oscar's Blues
TTITLE9=Wycliffe Gordon - St. Louis Blues
TTITLE10=The Warren Vaché Quintet - Blues Times 2
TTITLE11=Harry Allen Quartet - Everyday I Have The Blues
EXTD=
EXTT0=
EXTT1=
EXTT2=
EXTT3=
EXTT4=
EXTT5=
EXTT6=
EXTT7=
EXTT8=
EXTT9=
EXTT10=
EXTT11=
PLAYORDER=
